<svg width="107" height="33" viewBox="0 0 107 33" fill="none" xmlns="http://www.w3.org/2000/svg">
<path d="M8.08301 0H20.2167H8.08301C10.8296 2.29432 12.2652 5.32283 11.5573 9.5575C14.4416 6.37167 19.6071 4.22156 20.2167 0" fill="#E84615"/>
<path d="M7.90519 13.4054C10.7698 10.8292 14.6898 7.55812 19.6849 3.5791C18.4591 6.41751 16.5122 9.14448 14.3162 11.6945C10.8223 15.7521 8.52138 18.0268 8.70493 23.3627C8.84914 27.6105 10.2913 30.1343 13.8967 30.8291C11.9825 32.1664 10.016 32.9727 7.95763 32.9989C4.81769 33.0382 2.75279 31.6092 1.39586 28.8101C1.00255 28.0038 0.78623 27.2041 0.694457 26.3978C0.0389355 20.6489 4.07695 16.8469 7.90519 13.4054Z" fill="#3DAC47"/>
<path d="M11.6476 24.7791C10.9134 24.9168 10.1727 24.9365 9.43848 24.8643C9.7859 26.2278 10.3103 27.4209 11.1559 28.2796C13.0242 30.1741 15.2529 30.0364 17.1081 28.2534C19.4352 26.0246 21.6836 21.3114 23.8796 15.0381C21.6443 15.497 19.5269 16.0935 17.7112 17.0374C17.1933 18.3091 16.6558 19.5481 16.0461 20.7018C14.8727 22.9175 14.2172 24.3006 11.6476 24.7791Z" fill="#F9AE39"/>
<path d="M21.4233 32.5408C20.8792 30.7316 20.3351 28.9289 19.791 27.1197C21.5216 23.8158 23.0162 20.158 24.3272 16.2314C26.1889 22.118 28.3456 27.6244 30.9677 32.5408H21.4233Z" fill="#234191"/>
<path d="M39.9781 16.7611L39.1148 14.2214C38.9141 13.6492 38.7836 13.1171 38.6531 12.6152H38.633C38.5025 13.1372 38.3619 13.6793 38.1913 14.2113L37.328 16.7611H39.9781ZM37.0971 17.6545L36.1836 20.4252H34.999L37.9905 11.6113H39.3658L42.3774 20.4252H41.1627L40.2191 17.6545H37.0971Z" fill="black"/>
<path d="M46.1238 14.9452C45.4411 14.9452 44.9593 15.2965 44.6983 15.8085C44.4875 16.1899 44.3871 16.6417 44.3871 17.1536C44.3871 18.1976 44.8991 19.7034 46.1539 19.7034C47.4187 19.7034 47.8905 18.4787 47.8905 17.3143C47.8905 16.2803 47.479 14.9452 46.1238 14.9452ZM48.3824 11.9537C48.0512 12.0741 47.479 12.1745 47.0573 12.2448C46.0334 12.4054 45.2906 12.7367 44.8087 13.4394C44.4072 14.0116 44.1662 14.8648 44.116 15.5274H44.1562C44.5577 14.6139 45.4512 14.1019 46.3546 14.1019C47.9106 14.1019 49.045 15.2162 49.045 17.2239C49.045 19.2919 47.9709 20.5768 46.1137 20.5768C43.8852 20.5768 43.1523 18.4486 43.1523 16.3405C43.1523 14.905 43.4535 13.7204 44.1361 12.8371C44.7485 11.9637 45.6319 11.5521 46.8566 11.3413C47.3685 11.261 47.9909 11.1606 48.4226 11L48.3824 11.9537Z" fill="black"/>
<path d="M51.6906 14.0898V16.7601C51.6906 17.764 51.6806 18.3964 51.6203 19.2999L51.6605 19.3099C52.042 18.5369 52.2628 18.0952 52.6844 17.3624L54.662 14.0898H56.0072V20.4242H54.913V17.7439C54.913 16.7099 54.9431 16.1779 54.9933 15.1539H54.9531C54.5516 15.9671 54.2705 16.479 53.9091 17.1115C53.3068 18.0952 52.6142 19.3099 51.9315 20.4242H50.6064V14.0898H51.6906Z" fill="black"/>
<path d="M62.8173 14.0898V20.4242H61.6829V14.9933H59.5146V16.6396C59.5146 18.4165 59.344 19.6111 58.5208 20.1431C58.2096 20.3941 57.8582 20.5346 57.266 20.5346L57.1455 19.6311C57.3664 19.591 57.6173 19.5006 57.7779 19.3701C58.3702 18.9385 58.4304 18.045 58.4304 16.6396V14.0898H62.8173Z" fill="black"/>
<path d="M65.8889 14.0898V16.7601C65.8889 17.764 65.8788 18.3964 65.8186 19.2999L65.8587 19.3099C66.2402 18.5369 66.461 18.0952 66.8827 17.3624L68.8603 14.0898H70.2054V20.4242H69.1112V17.7439C69.1112 16.7099 69.1413 16.1779 69.1915 15.1539H69.1514C68.7498 15.9671 68.4688 16.479 68.1074 17.1115C67.5051 18.0952 66.8124 19.3099 66.1298 20.4242H64.8047V14.0898H65.8889Z" fill="black"/>
<path d="M72.2713 14.0898H73.6868L74.8412 17.2821C75.0018 17.7539 75.2729 18.5269 75.4134 19.0188H75.4435C75.5841 18.547 75.9354 17.5431 76.1864 16.8504L77.2103 14.0898H78.6358L79.0775 20.4242H77.9833L77.8427 17.4026C77.8026 16.7199 77.7524 15.9068 77.7223 15.1439H77.6821C77.5115 15.7161 77.3408 16.2281 76.9895 17.2018L75.7748 20.3941H74.9416L73.8173 17.2721C73.6165 16.6698 73.3455 15.7562 73.1849 15.164H73.1347C73.1045 15.9068 73.0644 16.7501 73.0343 17.4427L72.8737 20.4342H71.8096L72.2713 14.0898Z" fill="black"/>
<path d="M85.9061 14.0898V20.4242H84.7517V15.0134H81.8104V20.4242H80.666V14.0898H85.9061Z" fill="black"/>
<path d="M88.9653 14.0898V16.7601C88.9653 17.764 88.9553 18.3964 88.895 19.2999L88.9352 19.3099C89.3166 18.5369 89.5375 18.0952 89.9591 17.3624L91.9367 14.0898H93.2819V20.4242H92.1877V17.7439C92.1877 16.7099 92.2178 16.1779 92.268 15.1539H92.2178C91.8162 15.9671 91.5352 16.479 91.1738 17.1115C90.5715 18.0952 89.8788 19.3099 89.1962 20.4242H87.8711V14.0898H88.9653Z" fill="black"/>
<path d="M96.4146 14.0898V16.8404H96.6857L99.0648 14.0898H100.46L97.6996 16.9508C98.7235 17.0613 99.3358 17.7338 99.8378 18.8782C100.008 19.2999 100.229 19.9122 100.52 20.4242H99.3158C99.1451 20.1531 98.9243 19.6512 98.7235 19.1292C98.2918 18.1053 97.6996 17.6335 96.6355 17.6335H96.4146V20.4242H95.2803V14.0898H96.4146Z" fill="black"/>
<path d="M106.114 20.1946C105.812 20.3552 105.15 20.566 104.297 20.566C102.389 20.566 101.145 19.2711 101.145 17.3336C101.145 15.3861 102.48 13.9707 104.548 13.9707C105.23 13.9707 105.833 14.1414 106.144 14.302L105.883 15.1954C105.612 15.0348 105.18 14.8943 104.548 14.8943C103.092 14.8943 102.309 15.9684 102.309 17.2935C102.309 18.7591 103.253 19.6626 104.507 19.6626C105.16 19.6626 105.592 19.4919 105.923 19.3514L106.114 20.1946Z" fill="black"/>
</svg>
