<svg width="74" height="70" viewBox="0 0 74 70" fill="none" xmlns="http://www.w3.org/2000/svg">
<path d="M24.1202 0H43.4477H24.1202C28.4953 3.65458 30.782 8.47862 29.6543 15.2239C34.2486 10.1493 42.4767 6.72442 43.4477 0" fill="#E84615"/>
<path d="M23.8383 21.3532C28.4013 17.2496 34.6454 12.0393 42.6019 5.70117C40.6494 10.2224 37.5482 14.5661 34.0502 18.6279C28.4848 25.0913 24.8198 28.7146 25.1122 37.2141C25.3419 43.9803 27.6391 48.0003 33.382 49.1071C30.333 51.2372 27.2005 52.5215 23.9218 52.5633C18.9203 52.626 15.6312 50.3497 13.4697 45.8911C12.8432 44.6068 12.4987 43.3329 12.3525 42.0486C11.3083 32.8912 17.7404 26.8351 23.8383 21.3532Z" fill="#3DAC47"/>
<path d="M29.8005 39.4694C28.631 39.6887 27.4511 39.72 26.2816 39.6052C26.835 41.777 27.6704 43.6774 29.0174 45.0453C31.9932 48.0629 35.5434 47.8436 38.4984 45.0035C42.2052 41.4533 45.7866 33.9458 49.2846 23.9531C45.724 24.684 42.3513 25.6342 39.459 27.1378C38.6341 29.1635 37.7779 31.137 36.8068 32.9747C34.9378 36.504 33.8936 38.7072 29.8005 39.4694Z" fill="#F9AE39"/>
<path d="M45.369 51.8323C44.5023 48.9505 43.6357 46.079 42.769 43.1971C45.5256 37.9345 47.9063 32.1081 49.9946 25.8535C52.9601 35.2301 56.3954 44.0011 60.572 51.8323H45.369Z" fill="#234191"/>
<path d="M5.17906 65.4376L4.28108 62.7959C4.07224 62.2007 3.9365 61.6473 3.80076 61.1252H3.77988C3.64414 61.6682 3.49795 62.232 3.32045 62.7854L2.42246 65.4376H5.17906ZM2.18231 66.3669L1.23211 69.2488H0L3.11161 60.0811H4.54212L7.67461 69.2488H6.41117L5.42966 66.3669H2.18231Z" fill="black"/>
<path d="M11.5693 63.5479C10.8593 63.5479 10.3581 63.9134 10.0866 64.4459C9.86735 64.8427 9.76294 65.3125 9.76294 65.8451C9.76294 66.931 10.2955 68.4972 11.6007 68.4972C12.9163 68.4972 13.4071 67.2234 13.4071 66.0121C13.4071 64.9366 12.979 63.5479 11.5693 63.5479ZM13.9187 60.4363C13.5741 60.5616 12.979 60.666 12.5404 60.7391C11.4754 60.9062 10.7027 61.2507 10.2015 61.9817C9.78382 62.5768 9.53322 63.4644 9.48101 64.1535H9.52278C9.94045 63.2033 10.8698 62.6708 11.8095 62.6708C13.428 62.6708 14.6079 63.8298 14.6079 65.9182C14.6079 68.0691 13.4906 69.4057 11.5589 69.4057C9.24086 69.4057 8.47861 67.192 8.47861 64.9993C8.47861 63.5061 8.79186 62.274 9.5019 61.3552C10.1388 60.4467 11.0577 60.0186 12.3316 59.7994C12.8641 59.7158 13.5115 59.6114 13.9605 59.4443L13.9187 60.4363Z" fill="black"/>
<path d="M17.3645 62.6602V65.4376C17.3645 66.4818 17.354 67.1396 17.2914 68.0794L17.3331 68.0898C17.7299 67.2858 17.9596 66.8264 18.3982 66.0641L20.4552 62.6602H21.8544V69.2488H20.7162V66.4609C20.7162 65.3854 20.7476 64.832 20.7998 63.767H20.758C20.3403 64.6127 20.048 65.1453 19.6721 65.8031C19.0456 66.8264 18.3251 68.0898 17.6151 69.2488H16.2368V62.6602H17.3645Z" fill="black"/>
<path d="M28.9338 62.6602V69.2488H27.7539V63.5999H25.4985V65.3123C25.4985 67.1605 25.321 68.4031 24.4648 68.9565C24.1411 69.2175 23.7756 69.3637 23.1596 69.3637L23.0343 68.4239C23.264 68.3822 23.525 68.2882 23.6921 68.1525C24.3082 67.7035 24.3708 66.7742 24.3708 65.3123V62.6602H28.9338Z" fill="black"/>
<path d="M32.129 62.6602V65.4376C32.129 66.4818 32.1185 67.1396 32.0559 68.0794L32.0976 68.0898C32.4944 67.2858 32.7241 66.8264 33.1627 66.0641L35.2197 62.6602H36.6189V69.2488H35.4807V66.4609C35.4807 65.3854 35.5121 64.832 35.5643 63.767H35.5225C35.1048 64.6127 34.8125 65.1453 34.4366 65.8031C33.8101 66.8264 33.0896 68.0898 32.3796 69.2488H31.0013V62.6602H32.129Z" fill="black"/>
<path d="M38.7699 62.6602H40.2421L41.4429 65.9806C41.61 66.4714 41.8919 67.2754 42.0381 67.787H42.0694C42.2156 67.2963 42.5811 66.2521 42.8421 65.5316L43.9071 62.6602H45.3899L45.8493 69.2488H44.7112L44.565 66.1059C44.5232 65.3959 44.471 64.5501 44.4397 63.7565H44.3979C44.2204 64.3517 44.0429 64.8842 43.6774 65.8971L42.414 69.2175H41.5473L40.3779 65.9702C40.169 65.3437 39.8871 64.3935 39.72 63.7774H39.6678C39.6365 64.5501 39.5947 65.4272 39.5634 66.1477L39.3964 69.2593H38.2895L38.7699 62.6602Z" fill="black"/>
<path d="M52.9496 62.6602V69.2488H51.7488V63.6208H48.6894V69.2488H47.4991V62.6602H52.9496Z" fill="black"/>
<path d="M56.1343 62.6602V65.4376C56.1343 66.4818 56.1239 67.1396 56.0612 68.0794L56.103 68.0898C56.4998 67.2858 56.7295 66.8264 57.1681 66.0641L59.2251 62.6602H60.6242V69.2488H59.4861V66.4609C59.4861 65.3854 59.5174 64.832 59.5696 63.767H59.5174C59.0998 64.6127 58.8074 65.1453 58.4315 65.8031C57.805 66.8264 57.0845 68.0898 56.3745 69.2488H54.9962V62.6602H56.1343Z" fill="black"/>
<path d="M63.882 62.6602V65.5212H64.164L66.6386 62.6602H68.09L65.2186 65.636C66.2836 65.7509 66.9206 66.4505 67.4426 67.6408C67.6201 68.0794 67.8499 68.7163 68.1527 69.2488H66.8997C66.7222 68.9669 66.4925 68.4448 66.2836 67.9019C65.8346 66.8368 65.2186 66.3461 64.1118 66.3461H63.882V69.2488H62.7021V62.6602H63.882Z" fill="black"/>
<path d="M73.9687 69.009C73.6554 69.176 72.9663 69.3953 72.0787 69.3953C70.0948 69.3953 68.8001 68.0484 68.8001 66.0331C68.8001 64.0074 70.1888 62.5352 72.3398 62.5352C73.0498 62.5352 73.6763 62.7127 74 62.8797L73.7285 63.809C73.4466 63.642 72.9976 63.4958 72.3398 63.4958C70.8257 63.4958 70.0113 64.613 70.0113 65.9913C70.0113 67.5158 70.9928 68.4556 72.298 68.4556C72.9767 68.4556 73.4257 68.2781 73.7703 68.1319L73.9687 69.009Z" fill="black"/>
</svg>
