<svg width="49" height="53" viewBox="0 0 49 53" fill="none" xmlns="http://www.w3.org/2000/svg">
<path d="M12.1202 0H31.4477H12.1202C16.4953 3.65458 18.782 8.47862 17.6543 15.2239C22.2486 10.1493 30.4767 6.72442 31.4477 0" fill="#E84615"/>
<path d="M11.8383 21.3532C16.4013 17.2496 22.6454 12.0393 30.6019 5.70117C28.6494 10.2224 25.5482 14.5661 22.0502 18.6279C16.4848 25.0913 12.8198 28.7146 13.1122 37.2141C13.3419 43.9803 15.6391 48.0003 21.382 49.1071C18.333 51.2372 15.2005 52.5215 11.9218 52.5633C6.92027 52.626 3.63115 50.3497 1.46973 45.8911C0.843229 44.6068 0.498655 43.3329 0.352472 42.0486C-0.691693 32.8912 5.74037 26.8351 11.8383 21.3532Z" fill="#3DAC47"/>
<path d="M17.8005 39.4694C16.631 39.6887 15.4511 39.72 14.2816 39.6052C14.835 41.777 15.6704 43.6774 17.0174 45.0453C19.9932 48.0629 23.5434 47.8436 26.4984 45.0035C30.2052 41.4533 33.7866 33.9458 37.2846 23.9531C33.724 24.684 30.3513 25.6342 27.459 27.1378C26.6341 29.1635 25.7779 31.137 24.8068 32.9747C22.9378 36.504 21.8936 38.7072 17.8005 39.4694Z" fill="#F9AE39"/>
<path d="M33.369 51.8323C32.5023 48.9505 31.6357 46.079 30.769 43.1971C33.5256 37.9345 35.9063 32.1081 37.9946 25.8535C40.9601 35.2301 44.3954 44.0011 48.572 51.8323H33.369Z" fill="#234191"/>
</svg>
