<svg width="19" height="19" viewBox="0 0 19 19" fill="none" xmlns="http://www.w3.org/2000/svg">
<path d="M15.6535 13.2801L15.6106 13.2757C15.3314 13.2449 14.9082 13.1976 14.4828 13.1976C13.5375 13.1976 12.9956 13.4405 12.8725 13.9187C12.7131 14.5342 12.579 15.0311 12.5274 15.2234C12.5054 15.2267 12.479 15.23 12.446 15.23C11.7701 15.23 10.0916 14.2748 7.4085 11.5917C4.21318 8.39641 3.70316 6.88063 3.7757 6.47284C3.96696 6.42118 4.46489 6.28598 5.08043 6.1266C6.00264 5.88917 5.81359 4.19863 5.72345 3.38634L5.71905 3.34457C5.57726 2.06402 5.28927 0.362488 4.41872 0.362488C2.38744 0.394364 1.0904 1.36164 0.563894 3.23685C0.178081 4.60973 0.357247 6.37171 1.06842 8.19636C1.84004 10.1782 3.20413 12.182 5.01118 13.989C7.92182 16.8997 11.3601 18.6364 14.2091 18.6364C14.7653 18.6364 15.2885 18.5682 15.7634 18.4352C17.6386 17.9087 18.6048 16.6117 18.6377 14.5804C18.6498 13.7131 16.9406 13.423 15.6535 13.2801Z" fill="white"/>
</svg>
