<svg width="20" height="21" viewBox="0 0 20 21" fill="none" xmlns="http://www.w3.org/2000/svg">
<path fill-rule="evenodd" clip-rule="evenodd" d="M13.6364 7.9706C13.6364 9.97891 12.0083 11.607 10 11.607C7.99169 11.607 6.36364 9.97891 6.36364 7.9706C6.36364 5.9623 7.99169 4.33424 10 4.33424C12.0083 4.33424 13.6364 5.9623 13.6364 7.9706ZM11.8182 7.9706C11.8182 8.97476 11.0042 9.78878 10 9.78878C8.99585 9.78878 8.18182 8.97476 8.18182 7.9706C8.18182 6.96645 8.99585 6.15242 10 6.15242C11.0042 6.15242 11.8182 6.96645 11.8182 7.9706Z" fill="white"/>
<path fill-rule="evenodd" clip-rule="evenodd" d="M10 0.697876C4.47715 0.697876 0 5.17503 0 10.6979C0 16.2207 4.47715 20.6979 10 20.6979C15.5228 20.6979 20 16.2207 20 10.6979C20 5.17503 15.5228 0.697876 10 0.697876ZM1.81818 10.6979C1.81818 12.5981 2.46595 14.347 3.55271 15.7358C5.04768 13.7787 7.4057 12.5161 10.0586 12.5161C12.6771 12.5161 15.0083 13.7461 16.5059 15.66C17.5573 14.2836 18.1818 12.5636 18.1818 10.6979C18.1818 6.17918 14.5187 2.51606 10 2.51606C5.48131 2.51606 1.81818 6.17918 1.81818 10.6979ZM10 18.8797C8.04524 18.8797 6.25059 18.1942 4.84334 17.0505C5.99411 15.4081 7.90096 14.3342 10.0586 14.3342C12.1895 14.3342 14.0758 15.3816 15.2307 16.9896C13.8126 18.1698 11.9892 18.8797 10 18.8797Z" fill="white"/>
</svg>
