<svg width="20" height="21" viewBox="0 0 20 21" fill="none" xmlns="http://www.w3.org/2000/svg">
<mask id="path-1-outside-1" maskUnits="userSpaceOnUse" x="-0.471893" y="-0.0314941" width="21" height="21" fill="black">
<rect fill="white" x="-0.471893" y="-0.0314941" width="21" height="21"/>
<path d="M19.5293 11.5409C19.4308 11.7214 19.3752 11.9232 19.232 12.0818C18.9834 12.3573 18.6582 12.4502 18.3102 12.5019C17.9866 12.5502 17.6649 12.6083 17.3412 12.6556C17.2502 12.669 17.2015 12.7068 17.1732 12.7958C17.0573 13.1602 16.9097 13.5127 16.7357 13.8533C16.6899 13.9428 16.6969 14.0049 16.7551 14.084C16.9813 14.3927 17.203 14.7044 17.4228 15.0181C17.8091 15.5685 17.7658 16.1507 17.297 16.6305C16.934 17.0019 16.5671 17.3693 16.1952 17.7317C15.7145 18.2006 15.1343 18.2418 14.5844 17.8545C14.2816 17.6412 13.9773 17.4294 13.681 17.2072C13.5846 17.1346 13.51 17.1207 13.4016 17.1774C13.079 17.3459 12.7439 17.4871 12.3953 17.5925C12.276 17.6283 12.2387 17.7014 12.2198 17.8167C12.1522 18.2368 12.0891 18.6585 11.9966 19.0736C11.8842 19.5772 11.4522 19.9392 10.9366 19.9541C10.3316 19.9715 9.72502 19.973 9.11946 19.9536C8.55915 19.9357 8.12661 19.5201 8.02817 18.9463C7.96254 18.563 7.8989 18.1797 7.83924 17.7954C7.82383 17.6949 7.78853 17.6318 7.68164 17.599C7.33361 17.4916 6.99802 17.3519 6.67486 17.1848C6.58437 17.1381 6.52272 17.154 6.44367 17.2122C6.13045 17.4424 5.81226 17.6661 5.49308 17.8888C4.94867 18.2692 4.37394 18.2259 3.89814 17.7625C3.52178 17.3961 3.1499 17.0247 2.78348 16.6479C2.32359 16.1741 2.28332 15.5929 2.66565 15.0505C2.88242 14.7427 3.10018 14.435 3.32689 14.1342C3.39351 14.0457 3.396 13.9786 3.34628 13.8856C3.17824 13.5699 3.03157 13.2427 2.93015 12.8997C2.88789 12.7555 2.80237 12.7142 2.67162 12.6929C2.252 12.6233 1.8299 12.5611 1.41526 12.4676C0.912117 12.3543 0.554649 11.9208 0.540729 11.4032C0.524819 10.8041 0.52283 10.2035 0.541226 9.60491C0.558627 9.03714 0.974761 8.60212 1.55944 8.50169C1.9363 8.43656 2.31365 8.37093 2.692 8.31624C2.80138 8.30033 2.84811 8.25409 2.87993 8.15267C2.99329 7.79421 3.132 7.44469 3.307 7.11109C3.35424 7.0211 3.33932 6.95945 3.28115 6.8804C3.05444 6.57215 2.83369 6.25943 2.61345 5.94621C2.21571 5.37993 2.26393 4.79724 2.75067 4.30653C3.10764 3.94658 3.4661 3.58812 3.82754 3.23313C4.32074 2.74938 4.90243 2.70762 5.46722 3.11133C5.76354 3.32312 6.06085 3.53392 6.35269 3.75218C6.44218 3.8193 6.51477 3.83621 6.61669 3.78002C6.93637 3.60552 7.27197 3.46432 7.61899 3.35544C7.74875 3.31467 7.78604 3.24159 7.80444 3.12127C7.86261 2.73695 7.92028 2.35214 7.99684 1.97081C8.09976 1.46071 8.39309 1.11865 8.91662 1.00082C8.93103 0.997839 8.94197 0.979444 8.9544 0.968506C9.64697 0.968506 10.3395 0.968506 11.0321 0.968506C11.045 0.979444 11.056 0.997342 11.0704 1.00032C11.5685 1.11169 11.8703 1.4264 11.9767 1.91513C12.0632 2.31237 12.1194 2.71657 12.183 3.11878C12.199 3.2207 12.2343 3.27937 12.3411 3.31318C12.712 3.42902 13.0725 3.5737 13.416 3.75517C13.5204 3.81035 13.5891 3.79444 13.6795 3.72732C13.9823 3.5036 14.2911 3.28832 14.5993 3.07205C15.1497 2.68674 15.7284 2.73248 16.2087 3.2038C16.5746 3.56326 16.937 3.92669 17.2965 4.29211C17.7748 4.77835 17.819 5.35656 17.4243 5.91738C17.2075 6.22513 16.9887 6.53188 16.7665 6.83566C16.7108 6.91222 16.6894 6.97337 16.7387 7.06784C16.9156 7.40641 17.0608 7.7604 17.1767 8.12483C17.209 8.22725 17.2681 8.25807 17.3601 8.27199C17.6102 8.31027 17.8608 8.34657 18.1089 8.39479C18.4037 8.45147 18.7104 8.46639 18.9769 8.63145C19.2772 8.81739 19.4304 9.10128 19.5268 9.42643C19.5293 10.1314 19.5293 10.8359 19.5293 11.5409ZM6.52819 15.9861C6.66094 15.9797 6.77081 16.0349 6.8797 16.0945C7.33511 16.3451 7.80891 16.5544 8.31305 16.6817C8.64914 16.7667 8.80127 16.974 8.84651 17.3046C8.91164 17.7755 8.99964 18.2428 9.07323 18.7121C9.09361 18.8439 9.14929 18.9011 9.29149 18.8986C9.77374 18.8911 10.256 18.8886 10.7383 18.8996C10.9133 18.9036 10.9729 18.8369 10.9978 18.6719C11.0709 18.1837 11.1628 17.6984 11.2399 17.2107C11.2837 16.9338 11.4373 16.7687 11.7033 16.6981C12.2422 16.5549 12.7548 16.3456 13.2361 16.0637C13.4966 15.9111 13.7332 15.929 13.9754 16.107C14.3731 16.3998 14.7813 16.6782 15.1795 16.971C15.2988 17.0585 15.3774 17.0506 15.4793 16.9452C15.8149 16.5992 16.155 16.2571 16.5025 15.9225C16.6233 15.8062 16.6168 15.7187 16.5229 15.5909C16.241 15.2081 15.9775 14.8118 15.6921 14.4315C15.4982 14.1729 15.4724 13.9239 15.6399 13.644C15.9168 13.1811 16.1192 12.6844 16.2554 12.1634C16.3369 11.8521 16.5298 11.701 16.8376 11.6553C17.3139 11.5842 17.7877 11.4977 18.2635 11.4261C18.4141 11.4037 18.4728 11.3391 18.4698 11.1839C18.4619 10.7141 18.4579 10.2438 18.4713 9.77445C18.4768 9.58006 18.4007 9.52139 18.2217 9.49603C17.7454 9.42742 17.2726 9.33495 16.7968 9.26087C16.5055 9.21563 16.3374 9.05554 16.2624 8.77314C16.1217 8.24713 15.9203 7.7435 15.6404 7.27516C15.4773 7.00271 15.5007 6.7581 15.6901 6.50454C15.9785 6.11873 16.246 5.71751 16.5313 5.32972C16.6218 5.20691 16.6248 5.12289 16.5119 5.01302C16.1659 4.67742 15.8239 4.33686 15.4893 3.99033C15.3804 3.87747 15.2998 3.8725 15.175 3.96547C14.7793 4.26079 14.3726 4.54169 13.9744 4.83453C13.7516 4.9981 13.5249 5.02743 13.2838 4.88922C12.7672 4.5934 12.2218 4.37067 11.6466 4.21754C11.395 4.15042 11.2538 3.98287 11.2121 3.72235C11.1325 3.22866 11.0391 2.73745 10.9645 2.24326C10.9416 2.09162 10.8879 2.03246 10.7293 2.03494C10.2471 2.0434 9.76479 2.04489 9.28254 2.03395C9.12245 2.03047 9.06577 2.09162 9.0429 2.23879C8.96832 2.71458 8.87734 3.18739 8.80773 3.66369C8.7615 3.98138 8.6029 4.17975 8.28968 4.26129C7.76765 4.39702 7.27545 4.60832 6.81208 4.88325C6.54062 5.04434 6.29452 5.02395 6.04146 4.83453C5.65068 4.54269 5.24698 4.26875 4.85272 3.98138C4.74384 3.90233 4.66876 3.90134 4.56933 4.00326C4.22479 4.35824 3.87378 4.70626 3.51979 5.0518C3.42086 5.14874 3.41688 5.22531 3.49891 5.33767C3.79026 5.7364 4.06619 6.14707 4.36151 6.54282C4.55044 6.79588 4.5743 7.039 4.41371 7.31294C4.14424 7.77283 3.94339 8.26404 3.81462 8.7801C3.73109 9.1157 3.52626 9.27081 3.19464 9.31705C2.72382 9.38268 2.25697 9.47167 1.78714 9.54625C1.6534 9.56763 1.60219 9.62679 1.60468 9.76799C1.61313 10.2438 1.61562 10.7201 1.60418 11.1959C1.59971 11.3744 1.65688 11.4445 1.83537 11.4703C2.31763 11.5409 2.79591 11.6394 3.27817 11.7109C3.58045 11.7557 3.75297 11.9227 3.82854 12.2071C3.96874 12.7346 4.18153 13.2323 4.45796 13.7016C4.61457 13.9676 4.59667 14.2092 4.41322 14.4568C4.12336 14.8491 3.84892 15.2528 3.56007 15.6456C3.47306 15.7644 3.47952 15.8444 3.58393 15.9464C3.92947 16.2825 4.27301 16.6215 4.60612 16.97C4.72345 17.0928 4.80797 17.0839 4.93525 16.9904C5.33299 16.6976 5.73868 16.4157 6.14139 16.1293C6.25872 16.0473 6.38053 15.9772 6.52819 15.9861Z"/>
</mask>
<path d="M19.5293 11.5409C19.4308 11.7214 19.3752 11.9232 19.232 12.0818C18.9834 12.3573 18.6582 12.4502 18.3102 12.5019C17.9866 12.5502 17.6649 12.6083 17.3412 12.6556C17.2502 12.669 17.2015 12.7068 17.1732 12.7958C17.0573 13.1602 16.9097 13.5127 16.7357 13.8533C16.6899 13.9428 16.6969 14.0049 16.7551 14.084C16.9813 14.3927 17.203 14.7044 17.4228 15.0181C17.8091 15.5685 17.7658 16.1507 17.297 16.6305C16.934 17.0019 16.5671 17.3693 16.1952 17.7317C15.7145 18.2006 15.1343 18.2418 14.5844 17.8545C14.2816 17.6412 13.9773 17.4294 13.681 17.2072C13.5846 17.1346 13.51 17.1207 13.4016 17.1774C13.079 17.3459 12.7439 17.4871 12.3953 17.5925C12.276 17.6283 12.2387 17.7014 12.2198 17.8167C12.1522 18.2368 12.0891 18.6585 11.9966 19.0736C11.8842 19.5772 11.4522 19.9392 10.9366 19.9541C10.3316 19.9715 9.72502 19.973 9.11946 19.9536C8.55915 19.9357 8.12661 19.5201 8.02817 18.9463C7.96254 18.563 7.8989 18.1797 7.83924 17.7954C7.82383 17.6949 7.78853 17.6318 7.68164 17.599C7.33361 17.4916 6.99802 17.3519 6.67486 17.1848C6.58437 17.1381 6.52272 17.154 6.44367 17.2122C6.13045 17.4424 5.81226 17.6661 5.49308 17.8888C4.94867 18.2692 4.37394 18.2259 3.89814 17.7625C3.52178 17.3961 3.1499 17.0247 2.78348 16.6479C2.32359 16.1741 2.28332 15.5929 2.66565 15.0505C2.88242 14.7427 3.10018 14.435 3.32689 14.1342C3.39351 14.0457 3.396 13.9786 3.34628 13.8856C3.17824 13.5699 3.03157 13.2427 2.93015 12.8997C2.88789 12.7555 2.80237 12.7142 2.67162 12.6929C2.252 12.6233 1.8299 12.5611 1.41526 12.4676C0.912117 12.3543 0.554649 11.9208 0.540729 11.4032C0.524819 10.8041 0.52283 10.2035 0.541226 9.60491C0.558627 9.03714 0.974761 8.60212 1.55944 8.50169C1.9363 8.43656 2.31365 8.37093 2.692 8.31624C2.80138 8.30033 2.84811 8.25409 2.87993 8.15267C2.99329 7.79421 3.132 7.44469 3.307 7.11109C3.35424 7.0211 3.33932 6.95945 3.28115 6.8804C3.05444 6.57215 2.83369 6.25943 2.61345 5.94621C2.21571 5.37993 2.26393 4.79724 2.75067 4.30653C3.10764 3.94658 3.4661 3.58812 3.82754 3.23313C4.32074 2.74938 4.90243 2.70762 5.46722 3.11133C5.76354 3.32312 6.06085 3.53392 6.35269 3.75218C6.44218 3.8193 6.51477 3.83621 6.61669 3.78002C6.93637 3.60552 7.27197 3.46432 7.61899 3.35544C7.74875 3.31467 7.78604 3.24159 7.80444 3.12127C7.86261 2.73695 7.92028 2.35214 7.99684 1.97081C8.09976 1.46071 8.39309 1.11865 8.91662 1.00082C8.93103 0.997839 8.94197 0.979444 8.9544 0.968506C9.64697 0.968506 10.3395 0.968506 11.0321 0.968506C11.045 0.979444 11.056 0.997342 11.0704 1.00032C11.5685 1.11169 11.8703 1.4264 11.9767 1.91513C12.0632 2.31237 12.1194 2.71657 12.183 3.11878C12.199 3.2207 12.2343 3.27937 12.3411 3.31318C12.712 3.42902 13.0725 3.5737 13.416 3.75517C13.5204 3.81035 13.5891 3.79444 13.6795 3.72732C13.9823 3.5036 14.2911 3.28832 14.5993 3.07205C15.1497 2.68674 15.7284 2.73248 16.2087 3.2038C16.5746 3.56326 16.937 3.92669 17.2965 4.29211C17.7748 4.77835 17.819 5.35656 17.4243 5.91738C17.2075 6.22513 16.9887 6.53188 16.7665 6.83566C16.7108 6.91222 16.6894 6.97337 16.7387 7.06784C16.9156 7.40641 17.0608 7.7604 17.1767 8.12483C17.209 8.22725 17.2681 8.25807 17.3601 8.27199C17.6102 8.31027 17.8608 8.34657 18.1089 8.39479C18.4037 8.45147 18.7104 8.46639 18.9769 8.63145C19.2772 8.81739 19.4304 9.10128 19.5268 9.42643C19.5293 10.1314 19.5293 10.8359 19.5293 11.5409ZM6.52819 15.9861C6.66094 15.9797 6.77081 16.0349 6.8797 16.0945C7.33511 16.3451 7.80891 16.5544 8.31305 16.6817C8.64914 16.7667 8.80127 16.974 8.84651 17.3046C8.91164 17.7755 8.99964 18.2428 9.07323 18.7121C9.09361 18.8439 9.14929 18.9011 9.29149 18.8986C9.77374 18.8911 10.256 18.8886 10.7383 18.8996C10.9133 18.9036 10.9729 18.8369 10.9978 18.6719C11.0709 18.1837 11.1628 17.6984 11.2399 17.2107C11.2837 16.9338 11.4373 16.7687 11.7033 16.6981C12.2422 16.5549 12.7548 16.3456 13.2361 16.0637C13.4966 15.9111 13.7332 15.929 13.9754 16.107C14.3731 16.3998 14.7813 16.6782 15.1795 16.971C15.2988 17.0585 15.3774 17.0506 15.4793 16.9452C15.8149 16.5992 16.155 16.2571 16.5025 15.9225C16.6233 15.8062 16.6168 15.7187 16.5229 15.5909C16.241 15.2081 15.9775 14.8118 15.6921 14.4315C15.4982 14.1729 15.4724 13.9239 15.6399 13.644C15.9168 13.1811 16.1192 12.6844 16.2554 12.1634C16.3369 11.8521 16.5298 11.701 16.8376 11.6553C17.3139 11.5842 17.7877 11.4977 18.2635 11.4261C18.4141 11.4037 18.4728 11.3391 18.4698 11.1839C18.4619 10.7141 18.4579 10.2438 18.4713 9.77445C18.4768 9.58006 18.4007 9.52139 18.2217 9.49603C17.7454 9.42742 17.2726 9.33495 16.7968 9.26087C16.5055 9.21563 16.3374 9.05554 16.2624 8.77314C16.1217 8.24713 15.9203 7.7435 15.6404 7.27516C15.4773 7.00271 15.5007 6.7581 15.6901 6.50454C15.9785 6.11873 16.246 5.71751 16.5313 5.32972C16.6218 5.20691 16.6248 5.12289 16.5119 5.01302C16.1659 4.67742 15.8239 4.33686 15.4893 3.99033C15.3804 3.87747 15.2998 3.8725 15.175 3.96547C14.7793 4.26079 14.3726 4.54169 13.9744 4.83453C13.7516 4.9981 13.5249 5.02743 13.2838 4.88922C12.7672 4.5934 12.2218 4.37067 11.6466 4.21754C11.395 4.15042 11.2538 3.98287 11.2121 3.72235C11.1325 3.22866 11.0391 2.73745 10.9645 2.24326C10.9416 2.09162 10.8879 2.03246 10.7293 2.03494C10.2471 2.0434 9.76479 2.04489 9.28254 2.03395C9.12245 2.03047 9.06577 2.09162 9.0429 2.23879C8.96832 2.71458 8.87734 3.18739 8.80773 3.66369C8.7615 3.98138 8.6029 4.17975 8.28968 4.26129C7.76765 4.39702 7.27545 4.60832 6.81208 4.88325C6.54062 5.04434 6.29452 5.02395 6.04146 4.83453C5.65068 4.54269 5.24698 4.26875 4.85272 3.98138C4.74384 3.90233 4.66876 3.90134 4.56933 4.00326C4.22479 4.35824 3.87378 4.70626 3.51979 5.0518C3.42086 5.14874 3.41688 5.22531 3.49891 5.33767C3.79026 5.7364 4.06619 6.14707 4.36151 6.54282C4.55044 6.79588 4.5743 7.039 4.41371 7.31294C4.14424 7.77283 3.94339 8.26404 3.81462 8.7801C3.73109 9.1157 3.52626 9.27081 3.19464 9.31705C2.72382 9.38268 2.25697 9.47167 1.78714 9.54625C1.6534 9.56763 1.60219 9.62679 1.60468 9.76799C1.61313 10.2438 1.61562 10.7201 1.60418 11.1959C1.59971 11.3744 1.65688 11.4445 1.83537 11.4703C2.31763 11.5409 2.79591 11.6394 3.27817 11.7109C3.58045 11.7557 3.75297 11.9227 3.82854 12.2071C3.96874 12.7346 4.18153 13.2323 4.45796 13.7016C4.61457 13.9676 4.59667 14.2092 4.41322 14.4568C4.12336 14.8491 3.84892 15.2528 3.56007 15.6456C3.47306 15.7644 3.47952 15.8444 3.58393 15.9464C3.92947 16.2825 4.27301 16.6215 4.60612 16.97C4.72345 17.0928 4.80797 17.0839 4.93525 16.9904C5.33299 16.6976 5.73868 16.4157 6.14139 16.1293C6.25872 16.0473 6.38053 15.9772 6.52819 15.9861Z" fill="#959595"/>
<path d="M19.5293 11.5409C19.4308 11.7214 19.3752 11.9232 19.232 12.0818C18.9834 12.3573 18.6582 12.4502 18.3102 12.5019C17.9866 12.5502 17.6649 12.6083 17.3412 12.6556C17.2502 12.669 17.2015 12.7068 17.1732 12.7958C17.0573 13.1602 16.9097 13.5127 16.7357 13.8533C16.6899 13.9428 16.6969 14.0049 16.7551 14.084C16.9813 14.3927 17.203 14.7044 17.4228 15.0181C17.8091 15.5685 17.7658 16.1507 17.297 16.6305C16.934 17.0019 16.5671 17.3693 16.1952 17.7317C15.7145 18.2006 15.1343 18.2418 14.5844 17.8545C14.2816 17.6412 13.9773 17.4294 13.681 17.2072C13.5846 17.1346 13.51 17.1207 13.4016 17.1774C13.079 17.3459 12.7439 17.4871 12.3953 17.5925C12.276 17.6283 12.2387 17.7014 12.2198 17.8167C12.1522 18.2368 12.0891 18.6585 11.9966 19.0736C11.8842 19.5772 11.4522 19.9392 10.9366 19.9541C10.3316 19.9715 9.72502 19.973 9.11946 19.9536C8.55915 19.9357 8.12661 19.5201 8.02817 18.9463C7.96254 18.563 7.8989 18.1797 7.83924 17.7954C7.82383 17.6949 7.78853 17.6318 7.68164 17.599C7.33361 17.4916 6.99802 17.3519 6.67486 17.1848C6.58437 17.1381 6.52272 17.154 6.44367 17.2122C6.13045 17.4424 5.81226 17.6661 5.49308 17.8888C4.94867 18.2692 4.37394 18.2259 3.89814 17.7625C3.52178 17.3961 3.1499 17.0247 2.78348 16.6479C2.32359 16.1741 2.28332 15.5929 2.66565 15.0505C2.88242 14.7427 3.10018 14.435 3.32689 14.1342C3.39351 14.0457 3.396 13.9786 3.34628 13.8856C3.17824 13.5699 3.03157 13.2427 2.93015 12.8997C2.88789 12.7555 2.80237 12.7142 2.67162 12.6929C2.252 12.6233 1.8299 12.5611 1.41526 12.4676C0.912117 12.3543 0.554649 11.9208 0.540729 11.4032C0.524819 10.8041 0.52283 10.2035 0.541226 9.60491C0.558627 9.03714 0.974761 8.60212 1.55944 8.50169C1.9363 8.43656 2.31365 8.37093 2.692 8.31624C2.80138 8.30033 2.84811 8.25409 2.87993 8.15267C2.99329 7.79421 3.132 7.44469 3.307 7.11109C3.35424 7.0211 3.33932 6.95945 3.28115 6.8804C3.05444 6.57215 2.83369 6.25943 2.61345 5.94621C2.21571 5.37993 2.26393 4.79724 2.75067 4.30653C3.10764 3.94658 3.4661 3.58812 3.82754 3.23313C4.32074 2.74938 4.90243 2.70762 5.46722 3.11133C5.76354 3.32312 6.06085 3.53392 6.35269 3.75218C6.44218 3.8193 6.51477 3.83621 6.61669 3.78002C6.93637 3.60552 7.27197 3.46432 7.61899 3.35544C7.74875 3.31467 7.78604 3.24159 7.80444 3.12127C7.86261 2.73695 7.92028 2.35214 7.99684 1.97081C8.09976 1.46071 8.39309 1.11865 8.91662 1.00082C8.93103 0.997839 8.94197 0.979444 8.9544 0.968506C9.64697 0.968506 10.3395 0.968506 11.0321 0.968506C11.045 0.979444 11.056 0.997342 11.0704 1.00032C11.5685 1.11169 11.8703 1.4264 11.9767 1.91513C12.0632 2.31237 12.1194 2.71657 12.183 3.11878C12.199 3.2207 12.2343 3.27937 12.3411 3.31318C12.712 3.42902 13.0725 3.5737 13.416 3.75517C13.5204 3.81035 13.5891 3.79444 13.6795 3.72732C13.9823 3.5036 14.2911 3.28832 14.5993 3.07205C15.1497 2.68674 15.7284 2.73248 16.2087 3.2038C16.5746 3.56326 16.937 3.92669 17.2965 4.29211C17.7748 4.77835 17.819 5.35656 17.4243 5.91738C17.2075 6.22513 16.9887 6.53188 16.7665 6.83566C16.7108 6.91222 16.6894 6.97337 16.7387 7.06784C16.9156 7.40641 17.0608 7.7604 17.1767 8.12483C17.209 8.22725 17.2681 8.25807 17.3601 8.27199C17.6102 8.31027 17.8608 8.34657 18.1089 8.39479C18.4037 8.45147 18.7104 8.46639 18.9769 8.63145C19.2772 8.81739 19.4304 9.10128 19.5268 9.42643C19.5293 10.1314 19.5293 10.8359 19.5293 11.5409ZM6.52819 15.9861C6.66094 15.9797 6.77081 16.0349 6.8797 16.0945C7.33511 16.3451 7.80891 16.5544 8.31305 16.6817C8.64914 16.7667 8.80127 16.974 8.84651 17.3046C8.91164 17.7755 8.99964 18.2428 9.07323 18.7121C9.09361 18.8439 9.14929 18.9011 9.29149 18.8986C9.77374 18.8911 10.256 18.8886 10.7383 18.8996C10.9133 18.9036 10.9729 18.8369 10.9978 18.6719C11.0709 18.1837 11.1628 17.6984 11.2399 17.2107C11.2837 16.9338 11.4373 16.7687 11.7033 16.6981C12.2422 16.5549 12.7548 16.3456 13.2361 16.0637C13.4966 15.9111 13.7332 15.929 13.9754 16.107C14.3731 16.3998 14.7813 16.6782 15.1795 16.971C15.2988 17.0585 15.3774 17.0506 15.4793 16.9452C15.8149 16.5992 16.155 16.2571 16.5025 15.9225C16.6233 15.8062 16.6168 15.7187 16.5229 15.5909C16.241 15.2081 15.9775 14.8118 15.6921 14.4315C15.4982 14.1729 15.4724 13.9239 15.6399 13.644C15.9168 13.1811 16.1192 12.6844 16.2554 12.1634C16.3369 11.8521 16.5298 11.701 16.8376 11.6553C17.3139 11.5842 17.7877 11.4977 18.2635 11.4261C18.4141 11.4037 18.4728 11.3391 18.4698 11.1839C18.4619 10.7141 18.4579 10.2438 18.4713 9.77445C18.4768 9.58006 18.4007 9.52139 18.2217 9.49603C17.7454 9.42742 17.2726 9.33495 16.7968 9.26087C16.5055 9.21563 16.3374 9.05554 16.2624 8.77314C16.1217 8.24713 15.9203 7.7435 15.6404 7.27516C15.4773 7.00271 15.5007 6.7581 15.6901 6.50454C15.9785 6.11873 16.246 5.71751 16.5313 5.32972C16.6218 5.20691 16.6248 5.12289 16.5119 5.01302C16.1659 4.67742 15.8239 4.33686 15.4893 3.99033C15.3804 3.87747 15.2998 3.8725 15.175 3.96547C14.7793 4.26079 14.3726 4.54169 13.9744 4.83453C13.7516 4.9981 13.5249 5.02743 13.2838 4.88922C12.7672 4.5934 12.2218 4.37067 11.6466 4.21754C11.395 4.15042 11.2538 3.98287 11.2121 3.72235C11.1325 3.22866 11.0391 2.73745 10.9645 2.24326C10.9416 2.09162 10.8879 2.03246 10.7293 2.03494C10.2471 2.0434 9.76479 2.04489 9.28254 2.03395C9.12245 2.03047 9.06577 2.09162 9.0429 2.23879C8.96832 2.71458 8.87734 3.18739 8.80773 3.66369C8.7615 3.98138 8.6029 4.17975 8.28968 4.26129C7.76765 4.39702 7.27545 4.60832 6.81208 4.88325C6.54062 5.04434 6.29452 5.02395 6.04146 4.83453C5.65068 4.54269 5.24698 4.26875 4.85272 3.98138C4.74384 3.90233 4.66876 3.90134 4.56933 4.00326C4.22479 4.35824 3.87378 4.70626 3.51979 5.0518C3.42086 5.14874 3.41688 5.22531 3.49891 5.33767C3.79026 5.7364 4.06619 6.14707 4.36151 6.54282C4.55044 6.79588 4.5743 7.039 4.41371 7.31294C4.14424 7.77283 3.94339 8.26404 3.81462 8.7801C3.73109 9.1157 3.52626 9.27081 3.19464 9.31705C2.72382 9.38268 2.25697 9.47167 1.78714 9.54625C1.6534 9.56763 1.60219 9.62679 1.60468 9.76799C1.61313 10.2438 1.61562 10.7201 1.60418 11.1959C1.59971 11.3744 1.65688 11.4445 1.83537 11.4703C2.31763 11.5409 2.79591 11.6394 3.27817 11.7109C3.58045 11.7557 3.75297 11.9227 3.82854 12.2071C3.96874 12.7346 4.18153 13.2323 4.45796 13.7016C4.61457 13.9676 4.59667 14.2092 4.41322 14.4568C4.12336 14.8491 3.84892 15.2528 3.56007 15.6456C3.47306 15.7644 3.47952 15.8444 3.58393 15.9464C3.92947 16.2825 4.27301 16.6215 4.60612 16.97C4.72345 17.0928 4.80797 17.0839 4.93525 16.9904C5.33299 16.6976 5.73868 16.4157 6.14139 16.1293C6.25872 16.0473 6.38053 15.9772 6.52819 15.9861Z" stroke="#959595" stroke-width="0.6" mask="url(#path-1-outside-1)"/>
<path d="M10.0631 6.21592V6.21591L10.0619 6.21591C7.75838 6.20354 5.8184 8.04682 5.78954 10.421L5.78954 10.421C5.76222 12.7097 7.60191 14.6825 9.99734 14.7083C12.264 14.7325 14.2547 12.9238 14.28 10.4955C14.3037 8.21539 12.487 6.24785 10.0631 6.21592ZM7.15795 10.4623L7.15795 10.4622C7.15937 8.87813 8.46514 7.57533 10.0394 7.58383C11.6278 7.59234 12.9291 8.90205 12.914 10.4706L12.914 10.4706C12.8989 12.0584 11.6227 13.3314 10.0389 13.3399C8.46397 13.3484 7.15607 12.043 7.15795 10.4623ZM10.0402 7.43383C8.38214 7.42488 7.00945 8.79559 7.00795 10.4621L13.064 10.4721C13.0799 8.81896 11.7102 7.44278 10.0402 7.43383Z" fill="#959595" stroke="#959595" stroke-width="0.3"/>
</svg>
