<svg width="24" height="24" viewBox="0 0 24 24" fill="none" xmlns="http://www.w3.org/2000/svg">
<path d="M6.55556 16.4H15.4444V14.6H6.55556V16.4Z" fill="#959595"/>
<path d="M15.4444 12.8H6.55556V11H15.4444V12.8Z" fill="#959595"/>
<path d="M6.55556 9.2H10.1111V7.4H6.55556V9.2Z" fill="#959595"/>
<path fill-rule="evenodd" clip-rule="evenodd" d="M5.66667 2C4.19391 2 3 3.20883 3 4.7V17.3C3 18.7912 4.19391 20 5.66667 20H16.3333C17.8061 20 19 18.7912 19 17.3V8.3C19 4.82061 16.2142 2 12.7778 2H5.66667ZM5.66667 3.8H11.8889V8.3H17.2222V17.3C17.2222 17.7971 16.8243 18.2 16.3333 18.2H5.66667C5.17575 18.2 4.77778 17.7971 4.77778 17.3V4.7C4.77778 4.20294 5.17575 3.8 5.66667 3.8ZM13.6667 3.89002C15.099 4.18439 16.2811 5.17615 16.8524 6.5H13.6667V3.89002Z" fill="#959595"/>
</svg>
