<svg width="16" height="16" viewBox="0 0 16 16" fill="none" xmlns="http://www.w3.org/2000/svg">
<path fill-rule="evenodd" clip-rule="evenodd" d="M11.2241 9.87562H10.5112L10.2634 9.62963C11.1388 8.60885 11.6712 7.28552 11.6712 5.8356C11.6712 2.61257 9.05862 1.90735e-05 5.83558 1.90735e-05C2.61255 1.90735e-05 0 2.61257 0 5.8356C0 9.05864 2.61255 11.6712 5.83558 11.6712C7.2855 11.6712 8.60793 11.1397 9.62871 10.2653L9.8765 10.5113V11.2223L14.3636 15.7031L15.7022 14.3645L11.2241 9.87562ZM5.83561 9.87561C3.60373 9.87561 1.7956 8.06747 1.7956 5.83559C1.7956 3.6046 3.60373 1.79557 5.83561 1.79557C8.0666 1.79557 9.87563 3.6046 9.87563 5.83559C9.87563 8.06747 8.0666 9.87561 5.83561 9.87561Z" fill="#000"/>
</svg>
